<?xml version="1.0" encoding="utf-8"?>
<!-- Generator: Adobe Illustrator 16.0.0, SVG Export Plug-In . SVG Version: 6.00 Build 0)  -->
<!DOCTYPE svg PUBLIC "-//W3C//DTD SVG 1.1//EN" "http://www.w3.org/Graphics/SVG/1.1/DTD/svg11.dtd">
<svg version="1.1" id="Layer_1" xmlns="http://www.w3.org/2000/svg" xmlns:xlink="http://www.w3.org/1999/xlink" x="0px" y="0px"
	 width="742px" height="201px" viewBox="0 0 742 201" enable-background="new 0 0 742 201" xml:space="preserve">
<g>
	<path d="M176.272,102.792V97.4c0-32.571,19.197-47.673,48.317-47.673c26.747,0,39.474,9.709,45.083,36.887L237.1,92.007
		c-0.432-12.729-6.471-14.668-13.589-14.668c-11.216,0-14.453,5.825-14.453,22.435v0.429c0,15.748,3.884,22.864,14.453,22.864
		c9.922,0,14.02-2.803,14.668-12.51l32.141,4.53c-4.532,21.139-19.632,34.511-47.24,34.511
		C189.645,149.599,176.272,129.757,176.272,102.792z"/>
	<path d="M272.138,102.576v-5.39c0-30.846,17.904-47.458,47.887-47.458c28.903,0,44.003,14.454,44.003,43.791v14.883h-60.396
		c0.646,12.512,3.88,16.825,15.529,16.825c12.512,0,13.806-2.159,14.884-8.198l30.198,4.1
		c-3.022,12.295-12.725,28.471-44.219,28.471C285.51,149.599,272.138,132.993,272.138,102.576z M303.848,89.634h29.335
		c-0.434-8.844-2.804-13.806-13.806-13.806C308.16,75.828,304.709,79.925,303.848,89.634z"/>
	<path d="M369.172,51.238h32.139v9.059c6.47-6.037,15.964-10.569,29.553-10.569c21.354,0,28.254,11.868,28.254,32.356v66.653H426.98
		v-60.18c0-6.687-3.02-11.217-11.003-11.217c-8.844,0-14.667,1.94-14.667,16.392v55.005h-32.139V51.238z"/>
	<path d="M463.867,51.238h16.178V24.492h32.142v26.746h20.491v28.687h-20.491v29.984c0,8.63,1.94,11.004,10.136,11.004h10.355
		v27.823h-18.551c-27.396,0-34.082-9.273-34.082-33.867V79.925h-16.178V51.238z"/>
	<path d="M541.305,51.238h32.57v10.357c6.474-6.043,15.746-11.003,26.747-11.003v27.609c-17.474,0-26.317,3.021-26.747,18.55v51.984
		h-32.57V51.238z"/>
	<path d="M606.906,13.708h32.14v28.901h-32.14V13.708z M606.906,51.238h32.14v97.498h-32.14V51.238z"/>
	<path d="M705.141,139.244c-5.176,6.041-12.725,10.354-27.611,10.354c-28.257,0-34.728-19.842-34.728-46.807v-5.606
		c0-24.594,8.199-47.458,34.944-47.458c14.022,0,21.571,3.884,27.395,9.492v-7.981h32.141v135.894h-32.141V139.244z
		 M705.141,104.088V93.085c-0.43-11.862-5.392-15.746-16.606-15.746c-11.219,0-13.376,7.333-13.376,22.435v0.644
		c0,14.451,1.294,22.218,13.376,22.218C699.965,122.636,705.141,116.595,705.141,104.088z"/>
</g>
<g>
	<path fill="#1C75BC" d="M413.034,162.795h6.477c7.602,0,8.403,5.786,8.403,10.662v1.418c0,6.294-2.111,10.695-8.368,10.695h-6.512
		V162.795z M419.546,183.932c5.02,0,6.621-3.455,6.621-9.093v-1.382c0-5.168-1.056-9.022-6.656-9.022h-4.77v19.497H419.546z"/>
	<path fill="#1C75BC" d="M439.628,162.795h13.169v1.64h-11.459v7.531h10.368v1.636h-10.368v10.33h11.459v1.639h-13.169V162.795z"/>
	<path fill="#1C75BC" d="M472.443,185.752h-1.818l-7.603-22.957h1.781l6.766,20.448l6.769-20.448h1.71L472.443,185.752z"/>
	<path fill="#1C75BC" d="M490.999,162.795h13.167v1.64h-11.457v7.531h10.369v1.636h-10.369v10.33h11.457v1.639h-13.167V162.795z"/>
	<path fill="#1C75BC" d="M516.427,162.795h1.71v21.137h11.534v1.639h-13.244V162.795z"/>
	<path fill="#1C75BC" d="M538.691,174.839v-1.312c0-6.511,1.747-10.912,8.406-10.912c6.656,0,8.404,4.331,8.404,10.804v1.383
		c0,6.477-2.186,10.913-8.404,10.913C540.875,185.715,538.691,181.204,538.691,174.839z M553.754,174.802v-1.383
		c0-5.458-1.165-9.166-6.656-9.166c-5.492,0-6.659,3.745-6.659,9.24v1.309c0,5.419,1.528,9.277,6.659,9.277
		C552.226,184.079,553.754,180.295,553.754,174.802z"/>
	<path fill="#1C75BC" d="M567.215,162.795h8.478c4.075,0,6.474,1.785,6.474,6.078c0,4.146-2.62,6.146-6.474,6.146h-6.766v10.552
		h-1.712V162.795z M575.8,173.383c3.021,0,4.657-1.382,4.657-4.473c0-3.021-1.491-4.476-4.657-4.476h-6.873v8.948H575.8z"/>
	<path fill="#1C75BC" d="M593.48,162.795h2.439l7.785,20.557l7.785-20.557h2.437v22.775h-1.746v-20.119l-7.604,20.119h-1.819
		l-7.602-20.119v20.119h-1.676V162.795z"/>
	<path fill="#1C75BC" d="M626.733,162.795h13.169v1.64h-11.459v7.531h10.369v1.636h-10.369v10.33h11.459v1.639h-13.169V162.795z"/>
	<path fill="#1C75BC" d="M652.161,162.795h2.366l10.878,19.391v-19.391h1.674v22.775h-1.674l-11.567-20.663v20.663h-1.677V162.795z"
		/>
	<path fill="#1C75BC" d="M685.525,164.435h-7.241v-1.64h16.227v1.64h-7.239v21.136h-1.746V164.435z"/>
</g>
<g>
	<linearGradient id="SVGID_1_" gradientUnits="userSpaceOnUse" x1="4.0254" y1="100.4199" x2="27.2065" y2="100.4199">
		<stop  offset="0.0701" style="stop-color:#27AAE1"/>
		<stop  offset="0.8535" style="stop-color:#1C75BC"/>
	</linearGradient>
	<polygon fill="url(#SVGID_1_)" points="27.207,70.312 4.025,56.928 4.025,143.911 27.207,130.526 	"/>
	<linearGradient id="SVGID_2_" gradientUnits="userSpaceOnUse" x1="4.0254" y1="41.874" x2="79.3545" y2="41.874">
		<stop  offset="0.0701" style="stop-color:#27AAE1"/>
		<stop  offset="0.8535" style="stop-color:#1C75BC"/>
	</linearGradient>
	<polygon fill="url(#SVGID_2_)" points="79.354,40.205 79.354,13.437 4.025,56.928 27.207,70.312 	"/>
	<linearGradient id="SVGID_3_" gradientUnits="userSpaceOnUse" x1="79.3545" y1="41.874" x2="154.6846" y2="41.874">
		<stop  offset="0.0701" style="stop-color:#27AAE1"/>
		<stop  offset="0.8535" style="stop-color:#1C75BC"/>
	</linearGradient>
	<polygon fill="url(#SVGID_3_)" points="131.503,70.312 154.685,56.928 79.354,13.437 79.354,40.205 	"/>
	<linearGradient id="SVGID_4_" gradientUnits="userSpaceOnUse" x1="4.0254" y1="158.9648" x2="79.3545" y2="158.9648">
		<stop  offset="0.0701" style="stop-color:#27AAE1"/>
		<stop  offset="0.8535" style="stop-color:#1C75BC"/>
	</linearGradient>
	<polygon fill="url(#SVGID_4_)" points="27.207,130.526 4.025,143.911 79.354,187.403 79.354,160.635 	"/>
	<linearGradient id="SVGID_5_" gradientUnits="userSpaceOnUse" x1="131.5029" y1="100.4199" x2="154.6846" y2="100.4199">
		<stop  offset="0.0701" style="stop-color:#27AAE1"/>
		<stop  offset="0.8535" style="stop-color:#1C75BC"/>
	</linearGradient>
	<polygon fill="url(#SVGID_5_)" points="131.503,70.312 131.503,130.526 154.685,143.911 154.685,56.928 	"/>
	<linearGradient id="SVGID_6_" gradientUnits="userSpaceOnUse" x1="79.3545" y1="158.9648" x2="154.6846" y2="158.9648">
		<stop  offset="0.0701" style="stop-color:#27AAE1"/>
		<stop  offset="0.8535" style="stop-color:#1C75BC"/>
	</linearGradient>
	<polygon fill="url(#SVGID_6_)" points="79.354,160.635 79.354,187.403 154.685,143.911 131.503,130.526 	"/>
	<linearGradient id="SVGID_7_" gradientUnits="userSpaceOnUse" x1="36.4795" y1="100.4199" x2="59.6602" y2="100.4199">
		<stop  offset="0.0701" style="stop-color:#1C75BC"/>
		<stop  offset="0.8535" style="stop-color:#2B3990"/>
	</linearGradient>
	<polygon fill="url(#SVGID_7_)" points="59.66,89.049 36.479,75.666 36.479,125.175 59.66,111.789 	"/>
	<linearGradient id="SVGID_8_" gradientUnits="userSpaceOnUse" x1="36.4795" y1="69.98" x2="79.3545" y2="69.98">
		<stop  offset="0.0701" style="stop-color:#1C75BC"/>
		<stop  offset="0.8535" style="stop-color:#2B3990"/>
	</linearGradient>
	<polygon fill="url(#SVGID_8_)" points="79.354,77.677 79.354,50.911 36.479,75.666 59.66,89.049 	"/>
	<linearGradient id="SVGID_9_" gradientUnits="userSpaceOnUse" x1="36.4795" y1="130.8594" x2="79.3545" y2="130.8594">
		<stop  offset="0.0701" style="stop-color:#1C75BC"/>
		<stop  offset="0.8535" style="stop-color:#2B3990"/>
	</linearGradient>
	<polygon fill="url(#SVGID_9_)" points="59.66,111.789 36.479,125.175 79.354,149.929 79.354,123.16 	"/>
	<linearGradient id="SVGID_10_" gradientUnits="userSpaceOnUse" x1="79.3545" y1="69.98" x2="122.2305" y2="69.98">
		<stop  offset="0.0701" style="stop-color:#1C75BC"/>
		<stop  offset="0.8535" style="stop-color:#2B3990"/>
	</linearGradient>
	<polygon fill="url(#SVGID_10_)" points="79.354,77.677 99.05,89.049 122.23,75.666 79.354,50.911 	"/>
	<linearGradient id="SVGID_11_" gradientUnits="userSpaceOnUse" x1="79.3545" y1="130.8594" x2="122.2305" y2="130.8594">
		<stop  offset="0.0701" style="stop-color:#1C75BC"/>
		<stop  offset="0.8535" style="stop-color:#2B3990"/>
	</linearGradient>
	<polygon fill="url(#SVGID_11_)" points="79.354,123.16 79.354,149.929 122.23,125.175 99.05,111.789 	"/>
</g>
</svg>
